<svg id="Capa_1" enable-background="new 0 0 502 502" height="512" viewBox="0 0 502 502" width="512" xmlns="http://www.w3.org/2000/svg" xmlns:xlink="http://www.w3.org/1999/xlink"><linearGradient id="SVGID_1_" gradientUnits="userSpaceOnUse" x1="487.074" x2="14.926" y1="135.433" y2="135.433"><stop offset=".0005580357" stop-color="#f6e66a"/><stop offset="1" stop-color="#f9f2ab"/></linearGradient><linearGradient id="lg1"><stop offset=".0212" stop-color="#f5385d"/><stop offset="1" stop-color="#ff889e"/></linearGradient><linearGradient id="SVGID_2_" gradientUnits="userSpaceOnUse" x1="252.477" x2="252.477" xlink:href="#lg1" y1="502" y2="192.136"/><linearGradient id="SVGID_3_" gradientUnits="userSpaceOnUse" x1="86.235" x2="86.235" xlink:href="#lg1" y1="502" y2="191.871"/><linearGradient id="SVGID_4_" gradientUnits="userSpaceOnUse" x1="417.242" x2="417.242" xlink:href="#lg1" y1="502" y2="191.868"/><linearGradient id="lg2"><stop offset="0" stop-color="#d0d7d7"/><stop offset="1" stop-color="#efefef"/></linearGradient><linearGradient id="SVGID_5_" gradientUnits="userSpaceOnUse" x1="342.721" x2="342.721" xlink:href="#lg2" y1="502" y2="191.871"/><linearGradient id="SVGID_6_" gradientUnits="userSpaceOnUse" x1="159.279" x2="159.279" xlink:href="#lg2" y1="502" y2="191.871"/><g><path d="m20.492 204.493c-14.884-33.058 1.181-71.823 35.087-84.661l.006-.002-.004-.135c-1.07-36.189 28.552-65.811 64.741-64.741l.135.004.002-.006c12.838-33.906 51.603-49.971 84.661-35.087l.112-.119c24.831-26.329 66.702-26.329 91.533 0l.112.119h.001c33.058-14.884 71.823 1.182 84.661 35.087l.002.006.136-.004c36.189-1.07 65.811 28.552 64.741 64.741l-.004.135.006.002c33.906 12.838 49.971 51.603 35.087 84.661l-229.658 66.371z" fill="url(#SVGID_1_)"/><path d="m300.038 212.104 42.683 152.64-55.404 137.256h-72.635l-52.449-131.273 39.728-158.623c13.638-13.312 31.343-19.968 49.038-19.968s35.401 6.656 49.039 19.968z" fill="url(#SVGID_2_)"/><path d="m140.972 162.572c-6.274.743-12.501 2.081-18.593 4.031-12.09 3.871-25.018 3.828-37.112-.03-9.704-3.096-19.945-4.702-30.44-4.702-10.024 0-19.95 1.496-29.501 4.447-3.431 1.06-6.703 2.406-9.82 3.977-1.522 11.24-.037 23.043 4.986 34.199l86.159 19.996 46.042-26.501c5.903-3.397 9.541-9.689 9.541-16.5 0-11.397-9.945-20.256-21.262-18.917z" fill="#f0e02c"/><path d="m145.442 502h-24.534c-28.255 0-52.769-19.509-59.119-47.04l-50.673-219.754c-4.006-17.374 6.029-34.962 23.065-40.225 6.71-2.073 13.678-3.11 20.646-3.11 17.776 0 35.553 6.748 49.048 20.233l58.358 158.623z" fill="url(#SVGID_3_)"/><path d="m467.818 194.977c17.036 5.263 27.073 22.851 23.066 40.226l-50.674 219.757c-6.35 27.531-30.864 47.04-59.119 47.04h-24.534l-13.837-137.256 55.404-152.64c18.778-18.779 45.866-24.487 69.694-17.127z" fill="url(#SVGID_4_)"/><g><path d="m440.114 333.962c-1.134 0-2.285-.129-3.436-.399-8.066-1.891-13.071-9.962-11.181-18.028 1.949-8.316 3.891-16.634 5.819-24.956 1.87-8.071 9.926-13.098 17.998-11.228 8.071 1.869 13.098 9.927 11.228 17.998-1.933 8.347-3.881 16.691-5.837 25.032-1.62 6.915-7.783 11.581-14.591 11.581z" fill="#ffb2c1"/></g><g><path d="m456.051 265.395c-1.102 0-2.219-.122-3.339-.377-8.078-1.837-13.138-9.874-11.301-17.952.89-3.913 2.066-8.337 3.204-12.614.913-3.432 1.775-6.673 2.449-9.487 1.931-8.056 10.028-13.021 18.084-11.09s13.021 10.028 11.09 18.084c-.761 3.173-1.711 6.747-2.63 10.203-1.069 4.018-2.174 8.173-2.943 11.554-1.582 6.959-7.767 11.679-14.614 11.679z" fill="#ffb2c1"/></g><g><ellipse cx="126.085" cy="148.934" fill="#fd9bae" rx="21.085" ry="16.945"/><ellipse cx="374.216" cy="148.934" fill="#fd9bae" rx="21.085" ry="16.945"/><circle cx="162.234" cy="107.124" fill="#fff" r="41.811"/><circle cx="338.068" cy="107.124" fill="#fff" r="41.811"/><g fill="#383842"><g><circle cx="162.234" cy="107.124" r="24.919"/><circle cx="338.068" cy="107.124" r="24.919"/></g><path d="m250.15 148.191c-6.911 0-13.821-2.613-19.459-7.84-2.025-1.877-2.145-5.041-.267-7.066 1.877-2.025 5.042-2.145 7.066-.267 7.454 6.912 17.867 6.911 25.321 0 2.025-1.876 5.188-1.758 7.066.267 1.877 2.025 1.758 5.188-.267 7.066-5.638 5.227-12.548 7.84-19.46 7.84z"/></g></g><path d="m398.124 212.104-41.567 289.896h-69.24l12.721-289.896c13.485-13.485 31.272-20.233 49.048-20.233s35.553 6.748 49.038 20.233z" fill="url(#SVGID_5_)"/><path d="m214.682 502h-69.24l-41.567-289.896c13.485-13.485 31.262-20.233 49.038-20.233s35.563 6.748 49.048 20.233z" fill="url(#SVGID_6_)"/></g></svg>